<svg width="18" height="10" viewBox="0 0 18 10" fill="none" xmlns="http://www.w3.org/2000/svg">
<path d="M0.373837 0.871131C0.493347 0.753532 0.635529 0.660191 0.792189 0.596493C0.948847 0.532795 1.11688 0.5 1.28659 0.5C1.4563 0.5 1.62433 0.532795 1.78099 0.596493C1.93765 0.660191 2.07983 0.753532 2.19934 0.871131L8.08725 6.61755C8.20676 6.73515 8.34894 6.82849 8.5056 6.89219C8.66226 6.95589 8.83029 6.98869 9 6.98869C9.16971 6.98869 9.33774 6.95589 9.4944 6.89219C9.65106 6.82849 9.79324 6.73515 9.91275 6.61755L15.8007 0.871131C15.9202 0.753532 16.0624 0.660191 16.219 0.596493C16.3757 0.532795 16.5437 0.5 16.7134 0.5C16.8831 0.5 17.0512 0.532795 17.2078 0.596493C17.3645 0.660191 17.5067 0.753532 17.6262 0.871131C17.8656 1.10621 18 1.42421 18 1.75568C18 2.08715 17.8656 2.40515 17.6262 2.64023L11.7254 8.3992C11.0023 9.10408 10.022 9.5 9 9.5C7.97797 9.5 6.99773 9.10408 6.2746 8.3992L0.373837 2.64023C0.134398 2.40515 0 2.08715 0 1.75568C0 1.42421 0.134398 1.10621 0.373837 0.871131Z" fill="#B20F1C"/>
</svg>
