<svg width="59" height="58" viewBox="0 0 59 58" fill="none" xmlns="http://www.w3.org/2000/svg">
<path d="M54.7582 50.7638H13.7631C12.1642 50.7638 10.6308 50.1285 9.50018 48.9976C8.36959 47.8668 7.73442 46.333 7.73442 44.7337V3.72859C7.73442 2.76902 7.35332 1.84874 6.67497 1.17022C5.99661 0.491691 5.07656 0.1105 4.11721 0.1105C3.15787 0.1105 2.23782 0.491691 1.55946 1.17022C0.881098 1.84874 0.5 2.76902 0.5 3.72859V44.7337C0.50383 48.2509 1.90242 51.6231 4.3889 54.1101C6.87539 56.5972 10.2467 57.9962 13.7631 58H54.7582C55.7175 58 56.6376 57.6188 57.3159 56.9403C57.9943 56.2618 58.3754 55.3415 58.3754 54.3819C58.3754 53.4223 57.9943 52.5021 57.3159 51.8235C56.6376 51.145 55.7175 50.7638 54.7582 50.7638Z" fill="black"/>
<path d="M54.7582 50.7638H13.7631C12.1642 50.7638 10.6308 50.1285 9.50018 48.9976C8.36959 47.8668 7.73442 46.333 7.73442 44.7337V3.72859C7.73442 2.76902 7.35332 1.84874 6.67497 1.17022C5.99661 0.491691 5.07656 0.1105 4.11721 0.1105C3.15787 0.1105 2.23782 0.491691 1.55946 1.17022C0.881098 1.84874 0.5 2.76902 0.5 3.72859V44.7337C0.50383 48.2509 1.90242 51.6231 4.3889 54.1101C6.87539 56.5972 10.2467 57.9962 13.7631 58H54.7582C55.7175 58 56.6376 57.6188 57.3159 56.9403C57.9943 56.2618 58.3754 55.3415 58.3754 54.3819C58.3754 53.4223 57.9943 52.5021 57.3159 51.8235C56.6376 51.145 55.7175 50.7638 54.7582 50.7638Z" fill="url(#paint0_linear_47_29)"/>
<path d="M23.409 21.8191C22.4497 21.8191 21.5296 22.2003 20.8512 22.8788C20.1729 23.5573 19.7918 24.4776 19.7918 25.4372V42.3216C19.7918 43.2812 20.1729 44.2015 20.8512 44.88C21.5296 45.5585 22.4497 45.9397 23.409 45.9397C24.3683 45.9397 25.2884 45.5585 25.9668 44.88C26.6451 44.2015 27.0262 43.2812 27.0262 42.3216V25.4372C27.0262 24.4776 26.6451 23.5573 25.9668 22.8788C25.2884 22.2003 24.3683 21.8191 23.409 21.8191Z" fill="black"/>
<path d="M23.409 21.8191C22.4497 21.8191 21.5296 22.2003 20.8512 22.8788C20.1729 23.5573 19.7918 24.4776 19.7918 25.4372V42.3216C19.7918 43.2812 20.1729 44.2015 20.8512 44.88C21.5296 45.5585 22.4497 45.9397 23.409 45.9397C24.3683 45.9397 25.2884 45.5585 25.9668 44.88C26.6451 44.2015 27.0262 43.2812 27.0262 42.3216V25.4372C27.0262 24.4776 26.6451 23.5573 25.9668 22.8788C25.2884 22.2003 24.3683 21.8191 23.409 21.8191Z" fill="url(#paint1_linear_47_29)"/>
<path d="M34.2606 32.6733V42.3216C34.2606 43.2812 34.6417 44.2015 35.3201 44.88C35.9985 45.5585 36.9185 45.9397 37.8778 45.9397C38.8372 45.9397 39.7572 45.5585 40.4356 44.88C41.114 44.2015 41.4951 43.2812 41.4951 42.3216V32.6733C41.4951 31.7138 41.114 30.7935 40.4356 30.115C39.7572 29.4364 38.8372 29.0553 37.8778 29.0553C36.9185 29.0553 35.9985 29.4364 35.3201 30.115C34.6417 30.7935 34.2606 31.7138 34.2606 32.6733Z" fill="black"/>
<path d="M34.2606 32.6733V42.3216C34.2606 43.2812 34.6417 44.2015 35.3201 44.88C35.9985 45.5585 36.9185 45.9397 37.8778 45.9397C38.8372 45.9397 39.7572 45.5585 40.4356 44.88C41.114 44.2015 41.4951 43.2812 41.4951 42.3216V32.6733C41.4951 31.7138 41.114 30.7935 40.4356 30.115C39.7572 29.4364 38.8372 29.0553 37.8778 29.0553C36.9185 29.0553 35.9985 29.4364 35.3201 30.115C34.6417 30.7935 34.2606 31.7138 34.2606 32.6733Z" fill="url(#paint2_linear_47_29)"/>
<path d="M48.7295 23.0251V42.3216C48.7295 43.2812 49.1106 44.2015 49.7889 44.88C50.4673 45.5585 51.3874 45.9397 52.3467 45.9397C53.306 45.9397 54.2261 45.5585 54.9044 44.88C55.5828 44.2015 55.9639 43.2812 55.9639 42.3216V23.0251C55.9639 22.0655 55.5828 21.1452 54.9044 20.4667C54.2261 19.7882 53.306 19.407 52.3467 19.407C51.3874 19.407 50.4673 19.7882 49.7889 20.4667C49.1106 21.1452 48.7295 22.0655 48.7295 23.0251Z" fill="black"/>
<path d="M48.7295 23.0251V42.3216C48.7295 43.2812 49.1106 44.2015 49.7889 44.88C50.4673 45.5585 51.3874 45.9397 52.3467 45.9397C53.306 45.9397 54.2261 45.5585 54.9044 44.88C55.5828 44.2015 55.9639 43.2812 55.9639 42.3216V23.0251C55.9639 22.0655 55.5828 21.1452 54.9044 20.4667C54.2261 19.7882 53.306 19.407 52.3467 19.407C51.3874 19.407 50.4673 19.7882 49.7889 20.4667C49.1106 21.1452 48.7295 22.0655 48.7295 23.0251Z" fill="url(#paint3_linear_47_29)"/>
<path d="M14.9688 18.201C15.7899 18.2027 16.5866 17.9226 17.226 17.4074L22.7193 13.015C23.8286 12.1243 25.2278 11.6749 26.6481 11.7533C28.0684 11.8316 29.4097 12.4322 30.4143 13.4396C32.7327 15.7291 35.8211 17.0718 39.0763 17.2057C42.3315 17.3395 45.5197 16.2547 48.0181 14.1632L57.0949 6.48076C57.4816 6.18177 57.8037 5.8075 58.0418 5.38053C58.2799 4.95356 58.429 4.48276 58.4802 3.99655C58.5313 3.51034 58.4834 3.0188 58.3393 2.55163C58.1952 2.08446 57.958 1.65134 57.6419 1.27842C57.3258 0.9055 56.9375 0.600524 56.5003 0.381903C56.0631 0.163282 55.5862 0.0355521 55.0983 0.00642649C54.6104 -0.0226991 54.1216 0.0473835 53.6616 0.212443C53.2015 0.377502 52.7796 0.634113 52.4214 0.966781L43.3471 8.6492C42.2356 9.5762 40.8186 10.0553 39.3728 9.99285C37.927 9.9304 36.5565 9.33089 35.5291 8.31151C33.2673 6.0428 30.2475 4.68955 27.0493 4.51148C23.8511 4.33341 20.6998 5.34308 18.2002 7.34669L12.7093 11.7584C12.1243 12.2268 11.6992 12.8654 11.4927 13.5859C11.2862 14.3064 11.3085 15.0733 11.5566 15.7806C11.8046 16.4878 12.2662 17.1006 12.8774 17.5342C13.4887 17.9678 14.2195 18.2008 14.9688 18.201Z" fill="black"/>
<path d="M14.9688 18.201C15.7899 18.2027 16.5866 17.9226 17.226 17.4074L22.7193 13.015C23.8286 12.1243 25.2278 11.6749 26.6481 11.7533C28.0684 11.8316 29.4097 12.4322 30.4143 13.4396C32.7327 15.7291 35.8211 17.0718 39.0763 17.2057C42.3315 17.3395 45.5197 16.2547 48.0181 14.1632L57.0949 6.48076C57.4816 6.18177 57.8037 5.8075 58.0418 5.38053C58.2799 4.95356 58.429 4.48276 58.4802 3.99655C58.5313 3.51034 58.4834 3.0188 58.3393 2.55163C58.1952 2.08446 57.958 1.65134 57.6419 1.27842C57.3258 0.9055 56.9375 0.600524 56.5003 0.381903C56.0631 0.163282 55.5862 0.0355521 55.0983 0.00642649C54.6104 -0.0226991 54.1216 0.0473835 53.6616 0.212443C53.2015 0.377502 52.7796 0.634113 52.4214 0.966781L43.3471 8.6492C42.2356 9.5762 40.8186 10.0553 39.3728 9.99285C37.927 9.9304 36.5565 9.33089 35.5291 8.31151C33.2673 6.0428 30.2475 4.68955 27.0493 4.51148C23.8511 4.33341 20.6998 5.34308 18.2002 7.34669L12.7093 11.7584C12.1243 12.2268 11.6992 12.8654 11.4927 13.5859C11.2862 14.3064 11.3085 15.0733 11.5566 15.7806C11.8046 16.4878 12.2662 17.1006 12.8774 17.5342C13.4887 17.9678 14.2195 18.2008 14.9688 18.201Z" fill="url(#paint4_linear_47_29)"/>
<defs>
<linearGradient id="paint0_linear_47_29" x1="22.8144" y1="-39.2708" x2="177.909" y2="69.8384" gradientUnits="userSpaceOnUse">
<stop stop-color="#2D2D2D"/>
<stop offset="1" stop-color="#821E26"/>
</linearGradient>
<linearGradient id="paint1_linear_47_29" x1="22.8144" y1="-39.2708" x2="177.909" y2="69.8384" gradientUnits="userSpaceOnUse">
<stop stop-color="#2D2D2D"/>
<stop offset="1" stop-color="#821E26"/>
</linearGradient>
<linearGradient id="paint2_linear_47_29" x1="22.8144" y1="-39.2708" x2="177.909" y2="69.8384" gradientUnits="userSpaceOnUse">
<stop stop-color="#2D2D2D"/>
<stop offset="1" stop-color="#821E26"/>
</linearGradient>
<linearGradient id="paint3_linear_47_29" x1="22.8144" y1="-39.2708" x2="177.909" y2="69.8384" gradientUnits="userSpaceOnUse">
<stop stop-color="#2D2D2D"/>
<stop offset="1" stop-color="#821E26"/>
</linearGradient>
<linearGradient id="paint4_linear_47_29" x1="22.8144" y1="-39.2708" x2="177.909" y2="69.8384" gradientUnits="userSpaceOnUse">
<stop stop-color="#2D2D2D"/>
<stop offset="1" stop-color="#821E26"/>
</linearGradient>
</defs>
</svg>
