<svg width="17" height="18" viewBox="0 0 17 18" fill="none" xmlns="http://www.w3.org/2000/svg">
<path d="M13.4583 1.91667H12.75V1.20833C12.75 0.817333 12.4334 0.5 12.0417 0.5C11.65 0.5 11.3333 0.817333 11.3333 1.20833V1.91667H5.66667V1.20833C5.66667 0.817333 5.35004 0.5 4.95833 0.5C4.56663 0.5 4.25 0.817333 4.25 1.20833V1.91667H3.54167C1.58879 1.91667 0 3.50546 0 5.45833V13.9583C0 15.9112 1.58879 17.5 3.54167 17.5H13.4583C15.4112 17.5 17 15.9112 17 13.9583V5.45833C17 3.50546 15.4112 1.91667 13.4583 1.91667ZM3.54167 3.33333H13.4583C14.6299 3.33333 15.5833 4.28675 15.5833 5.45833V6.16667H1.41667V5.45833C1.41667 4.28675 2.37008 3.33333 3.54167 3.33333ZM13.4583 16.0833H3.54167C2.37008 16.0833 1.41667 15.1299 1.41667 13.9583V7.58333H15.5833V13.9583C15.5833 15.1299 14.6299 16.0833 13.4583 16.0833ZM13.4583 10.4167C13.4583 10.8077 13.1417 11.125 12.75 11.125H4.25C3.85829 11.125 3.54167 10.8077 3.54167 10.4167C3.54167 10.0257 3.85829 9.70833 4.25 9.70833H12.75C13.1417 9.70833 13.4583 10.0257 13.4583 10.4167ZM8.5 13.25C8.5 13.641 8.18338 13.9583 7.79167 13.9583H4.25C3.85829 13.9583 3.54167 13.641 3.54167 13.25C3.54167 12.859 3.85829 12.5417 4.25 12.5417H7.79167C8.18338 12.5417 8.5 12.859 8.5 13.25Z" fill="url(#paint0_linear_2_15)"/>
<defs>
<linearGradient id="paint0_linear_2_15" x1="6.54042" y1="-11.0104" x2="30.1357" y2="1.27814" gradientUnits="userSpaceOnUse">
<stop stop-color="#2D2D2D"/>
<stop offset="1" stop-color="#821E26"/>
</linearGradient>
</defs>
</svg>
