<svg width="15" height="16" viewBox="0 0 15 16" fill="none" xmlns="http://www.w3.org/2000/svg">
<path d="M11.875 1.75H11.25V1.125C11.25 0.95924 11.1842 0.800269 11.0669 0.683058C10.9497 0.565848 10.7908 0.5 10.625 0.5C10.4592 0.5 10.3003 0.565848 10.1831 0.683058C10.0658 0.800269 10 0.95924 10 1.125V1.75H5V1.125C5 0.95924 4.93415 0.800269 4.81694 0.683058C4.69973 0.565848 4.54076 0.5 4.375 0.5C4.20924 0.5 4.05027 0.565848 3.93306 0.683058C3.81585 0.800269 3.75 0.95924 3.75 1.125V1.75H3.125C2.2965 1.75099 1.50222 2.08055 0.916387 2.66639C0.330551 3.25222 0.000992411 4.0465 0 4.875V12.375C0.000992411 13.2035 0.330551 13.9978 0.916387 14.5836C1.50222 15.1694 2.2965 15.499 3.125 15.5H11.875C12.7035 15.499 13.4978 15.1694 14.0836 14.5836C14.6694 13.9978 14.999 13.2035 15 12.375V4.875C14.999 4.0465 14.6694 3.25222 14.0836 2.66639C13.4978 2.08055 12.7035 1.75099 11.875 1.75ZM1.25 4.875C1.25 4.37772 1.44754 3.90081 1.79917 3.54917C2.15081 3.19754 2.62772 3 3.125 3H11.875C12.3723 3 12.8492 3.19754 13.2008 3.54917C13.5525 3.90081 13.75 4.37772 13.75 4.875V5.5H1.25V4.875ZM11.875 14.25H3.125C2.62772 14.25 2.15081 14.0525 1.79917 13.7008C1.44754 13.3492 1.25 12.8723 1.25 12.375V6.75H13.75V12.375C13.75 12.8723 13.5525 13.3492 13.2008 13.7008C12.8492 14.0525 12.3723 14.25 11.875 14.25Z" fill="#B20F1C"/>
<path d="M7.5 10.8125C8.01777 10.8125 8.4375 10.3928 8.4375 9.875C8.4375 9.35723 8.01777 8.9375 7.5 8.9375C6.98223 8.9375 6.5625 9.35723 6.5625 9.875C6.5625 10.3928 6.98223 10.8125 7.5 10.8125Z" fill="#B20F1C"/>
<path d="M4.375 10.8125C4.89277 10.8125 5.3125 10.3928 5.3125 9.875C5.3125 9.35723 4.89277 8.9375 4.375 8.9375C3.85723 8.9375 3.4375 9.35723 3.4375 9.875C3.4375 10.3928 3.85723 10.8125 4.375 10.8125Z" fill="#B20F1C"/>
<path d="M10.625 10.8125C11.1428 10.8125 11.5625 10.3928 11.5625 9.875C11.5625 9.35723 11.1428 8.9375 10.625 8.9375C10.1072 8.9375 9.6875 9.35723 9.6875 9.875C9.6875 10.3928 10.1072 10.8125 10.625 10.8125Z" fill="#B20F1C"/>
</svg>
