<svg width="15" height="14" viewBox="0 0 15 14" fill="none" xmlns="http://www.w3.org/2000/svg">
<path d="M14.7487 6.52433L13.0606 2.00374C12.6137 0.805269 11.4337 0 10.1244 0H4.87625C3.56625 0 2.38688 0.805269 1.94 2.00313L0.25125 6.52433C0.084375 6.97048 0 7.43733 0 7.91331V8.52198C0 9.5135 0.496875 10.3875 1.2525 10.9433C1.2525 10.9481 1.25 10.9518 1.25 10.9567V12.174C1.25 13.1807 2.09125 14 3.125 14C4.15875 14 5 13.1807 5 12.174V11.5653H10V12.174C10 13.1807 10.8413 14 11.875 14C12.9087 14 13.75 13.1807 13.75 12.174V10.9567C13.75 10.9518 13.7475 10.9481 13.7475 10.9433C14.5037 10.3875 15 9.5135 15 8.52198V7.91331C15 7.43733 14.915 6.97048 14.7487 6.52433ZM3.11375 2.41946C3.3825 1.70062 4.09 1.21795 4.87563 1.21795H10.1231C10.9088 1.21795 11.6169 1.70062 11.885 2.42007L12.8 4.86996H2.19875L3.11375 2.41946ZM3.75 12.174C3.75 12.5094 3.47 12.7827 3.125 12.7827C2.78 12.7827 2.5 12.5094 2.5 12.174V11.5038C2.70187 11.544 2.91125 11.5653 3.125 11.5653H3.75V12.174ZM12.5 12.174C12.5 12.5094 12.22 12.7827 11.875 12.7827C11.53 12.7827 11.25 12.5094 11.25 12.174V11.5653H11.875C12.0887 11.5653 12.2981 11.544 12.5 11.5038V12.174ZM11.875 10.348H10V9.73932C10 9.40333 9.72062 9.13065 9.375 9.13065H5.625C5.27938 9.13065 5 9.40333 5 9.73932V10.348H3.125C2.09125 10.348 1.25 9.52872 1.25 8.52198H2.5C2.84562 8.52198 3.125 8.24929 3.125 7.91331C3.125 7.57732 2.84562 7.30464 2.5 7.30464H1.32563C1.35312 7.1823 1.38125 7.05935 1.42562 6.94066L1.74437 6.0873H13.2556L13.5744 6.94066C13.6187 7.05935 13.6469 7.18169 13.6744 7.30464H12.5C12.1544 7.30464 11.875 7.57732 11.875 7.91331C11.875 8.24929 12.1544 8.52198 12.5 8.52198H13.75C13.75 9.52872 12.9087 10.348 11.875 10.348Z" fill="#B20F1C"/>
</svg>
