<svg width="17" height="16" viewBox="0 0 17 16" fill="none" xmlns="http://www.w3.org/2000/svg">
<path d="M17 5.43052C17 5.14054 16.8881 4.86243 16.6888 4.65738C16.4895 4.45233 16.2193 4.33713 15.9375 4.33713C15.9375 4.33713 15.5238 4.33713 15.4948 4.34296C14.9651 3.33305 14.3583 2.36807 13.68 1.45713C13.3261 0.983542 12.8357 0.637305 12.279 0.467973C11.0316 -0.155991 5.96842 -0.155991 4.72104 0.467973C4.16429 0.637305 3.67387 0.983542 3.31996 1.45713C2.64169 2.36807 2.03487 3.33305 1.50521 4.34296C1.47617 4.33713 1.0625 4.33713 1.0625 4.33713C0.780707 4.33713 0.510456 4.45233 0.311199 4.65738C0.111942 4.86243 0 5.14054 0 5.43052V10.1686C0.000136948 10.6802 0.13112 11.1829 0.37979 11.626C0.62846 12.0691 0.98606 12.437 1.41667 12.6928V13.8132C1.41667 14.3932 1.64055 14.9494 2.03906 15.3595C2.43758 15.7696 2.97808 16 3.54167 16C4.10525 16 4.64575 15.7696 5.04427 15.3595C5.44278 14.9494 5.66667 14.3932 5.66667 13.8132V13.0843H11.3333V13.8132C11.3333 14.3932 11.5572 14.9494 11.9557 15.3595C12.3542 15.7696 12.8947 16 13.4583 16C14.0219 16 14.5624 15.7696 14.9609 15.3595C15.3595 14.9494 15.5833 14.3932 15.5833 13.8132V12.6928C16.0139 12.437 16.3715 12.0691 16.6202 11.626C16.8689 11.1829 16.9999 10.6802 17 10.1686V5.43052ZM4.44408 2.34424C4.61761 2.11395 4.8573 1.94585 5.12904 1.86387C6.205 1.31645 10.7957 1.31645 11.871 1.86387C12.1427 1.94585 12.3824 2.11395 12.5559 2.34424C13.6316 3.79572 14.5175 5.38622 15.1909 7.07499C10.7538 6.40874 6.2462 6.40874 1.80908 7.07499C2.4825 5.38622 3.3684 3.79572 4.44408 2.34424ZM4.25 13.8132C4.25 14.0065 4.17537 14.1919 4.04253 14.3286C3.9097 14.4653 3.72953 14.5421 3.54167 14.5421C3.35381 14.5421 3.17364 14.4653 3.0408 14.3286C2.90796 14.1919 2.83333 14.0065 2.83333 13.8132V13.0843H4.25V13.8132ZM14.1667 13.8132C14.1667 14.0065 14.092 14.1919 13.9592 14.3286C13.8264 14.4653 13.6462 14.5421 13.4583 14.5421C13.2705 14.5421 13.0903 14.4653 12.9575 14.3286C12.8246 14.1919 12.75 14.0065 12.75 13.8132V13.0843H14.1667V13.8132ZM14.1667 11.6264H2.83333C2.45761 11.6264 2.09728 11.4728 1.8316 11.1994C1.56592 10.926 1.41667 10.5552 1.41667 10.1686V8.60647C3.76179 8.23754 6.12808 8.02885 8.5 7.98178C10.8719 8.02885 13.2382 8.23754 15.5833 8.60647V10.1686C15.5833 10.5552 15.4341 10.926 15.1684 11.1994C14.9027 11.4728 14.5424 11.6264 14.1667 11.6264ZM4.25 10.1686C4.25 10.3619 4.17537 10.5473 4.04253 10.684C3.9097 10.8207 3.72953 10.8975 3.54167 10.8975C3.35381 10.8975 3.17364 10.8207 3.0408 10.684C2.90796 10.5473 2.83333 10.3619 2.83333 10.1686C2.83333 9.97524 2.90796 9.78983 3.0408 9.65313C3.17364 9.51643 3.35381 9.43964 3.54167 9.43964C3.72953 9.43964 3.9097 9.51643 4.04253 9.65313C4.17537 9.78983 4.25 9.97524 4.25 10.1686ZM14.1667 10.1686C14.1667 10.3619 14.092 10.5473 13.9592 10.684C13.8264 10.8207 13.6462 10.8975 13.4583 10.8975C13.2705 10.8975 13.0903 10.8207 12.9575 10.684C12.8246 10.5473 12.75 10.3619 12.75 10.1686C12.75 9.97524 12.8246 9.78983 12.9575 9.65313C13.0903 9.51643 13.2705 9.43964 13.4583 9.43964C13.6462 9.43964 13.8264 9.51643 13.9592 9.65313C14.092 9.78983 14.1667 9.97524 14.1667 10.1686Z" fill="url(#paint0_linear_2_12)"/>
<defs>
<linearGradient id="paint0_linear_2_12" x1="6.54042" y1="-10.8333" x2="29.5041" y2="1.87376" gradientUnits="userSpaceOnUse">
<stop stop-color="#2D2D2D"/>
<stop offset="1" stop-color="#821E26"/>
</linearGradient>
</defs>
</svg>
