<svg width="16" height="14" viewBox="0 0 16 14" fill="none" xmlns="http://www.w3.org/2000/svg">
<path d="M14.3333 5.33333H14V5C14 4.08133 13.252 3.33333 12.3333 3.33333H10.6667V1.33333H12.6667C13.0347 1.33333 13.3333 1.03467 13.3333 0.666667C13.3333 0.298667 13.0347 0 12.6667 0H7.33333C6.96533 0 6.66667 0.298667 6.66667 0.666667C6.66667 1.03467 6.96533 1.33333 7.33333 1.33333H9.33333V3.33333H7.62467C7.02933 3.33333 6.46933 3.596 6.08867 4.05333L5.02133 5.33333H5C4.08133 5.33333 3.33333 6.08133 3.33333 7V8H1.33333V6C1.33333 5.632 1.03467 5.33333 0.666667 5.33333C0.298667 5.33333 0 5.632 0 6V11.3333C0 11.7013 0.298667 12 0.666667 12C1.03467 12 1.33333 11.7013 1.33333 11.3333V9.33333H3.33333V10.7807C3.33333 11.3147 3.54133 11.8173 3.91933 12.1953L5.138 13.414C5.51533 13.792 6.018 14 6.55267 14H12.3333C13.1387 14 13.8113 13.4267 13.9667 12.6667H14.3333C15.252 12.6667 16 11.9187 16 11V7C16 6.08133 15.252 5.33333 14.3333 5.33333ZM14.6667 11C14.6667 11.184 14.5173 11.3333 14.3333 11.3333H13.3333C12.9653 11.3333 12.6667 11.632 12.6667 12V12.3333C12.6667 12.5173 12.5173 12.6667 12.3333 12.6667H6.55267C6.37467 12.6667 6.20667 12.5973 6.08067 12.4713L4.862 11.2527C4.736 11.1267 4.66667 10.9593 4.66667 10.7807V7C4.66667 6.816 4.816 6.66667 5 6.66667H5.33333C5.53133 6.66667 5.71867 6.57867 5.84533 6.42667L7.11267 4.90667C7.23933 4.754 7.426 4.66667 7.62467 4.66667H12.3333C12.5173 4.66667 12.6667 4.816 12.6667 5V6C12.6667 6.368 12.9653 6.66667 13.3333 6.66667H14.3333C14.5173 6.66667 14.6667 6.816 14.6667 7V11Z" fill="#B20F1C"/>
</svg>
