<svg width="13" height="14" viewBox="0 0 13 14" fill="none" xmlns="http://www.w3.org/2000/svg">
<path d="M6.5 0.5C5.21442 0.5 3.95772 0.881218 2.8888 1.59545C1.81988 2.30968 0.986755 3.32484 0.494786 4.51256C0.00281637 5.70028 -0.125905 7.00721 0.124899 8.26809C0.375702 9.52896 0.994767 10.6872 1.90381 11.5962C2.81285 12.5052 3.97104 13.1243 5.23191 13.3751C6.49279 13.6259 7.79972 13.4972 8.98744 13.0052C10.1752 12.5132 11.1903 11.6801 11.9046 10.6112C12.6188 9.54228 13 8.28558 13 7C12.9981 5.27666 12.3127 3.62445 11.0941 2.40586C9.87556 1.18728 8.22334 0.501864 6.5 0.5ZM11.9167 7C11.9173 8.06151 11.6041 9.09951 11.0164 9.9835L10.3708 9.33729C10.3201 9.28653 10.2917 9.21777 10.2917 9.14608V8.625C10.2917 8.19402 10.1205 7.7807 9.81572 7.47595C9.51097 7.1712 9.09764 7 8.66667 7H7.04167C6.89801 7 6.76023 6.94293 6.65865 6.84135C6.55707 6.73977 6.5 6.60199 6.5 6.45833V6.1875C6.5 6.11567 6.52854 6.04678 6.57933 5.99599C6.63012 5.9452 6.69901 5.91667 6.77084 5.91667C7.12998 5.91667 7.47442 5.77399 7.72837 5.52004C7.98233 5.26608 8.125 4.92165 8.125 4.5625V4.02083C8.125 3.949 8.15354 3.88012 8.20433 3.82932C8.25512 3.77853 8.32401 3.75 8.39583 3.75H9.14279C9.50159 3.74898 9.84551 3.60651 10.0999 3.3535L10.3041 3.14929C10.815 3.652 11.2207 4.25139 11.4976 4.91251C11.7744 5.57363 11.9169 6.28325 11.9167 7ZM1.10988 7.52162L2.82046 9.23221C2.97099 9.38371 3.15011 9.50381 3.34742 9.58554C3.54473 9.66727 3.75631 9.70901 3.96988 9.70833H5.41667C5.56033 9.70833 5.6981 9.7654 5.79968 9.86698C5.90127 9.96856 5.95834 10.1063 5.95834 10.25V12.389C4.71261 12.2619 3.54922 11.7077 2.66551 10.8205C1.78179 9.93338 1.23218 8.76784 1.10988 7.52162ZM7.04167 12.389V10.25C7.04167 9.81902 6.87046 9.4057 6.56572 9.10095C6.26097 8.7962 5.84765 8.625 5.41667 8.625H3.96988C3.89866 8.62505 3.82813 8.61107 3.76232 8.58383C3.69652 8.5566 3.63673 8.51666 3.58638 8.46629L1.17163 6.05154C1.32664 5.17036 1.69799 4.34144 2.25235 3.63916C2.80671 2.93689 3.52674 2.38322 4.34785 2.02783C5.16895 1.67245 6.06544 1.52647 6.95688 1.60299C7.84831 1.6795 8.70681 1.97613 9.45533 2.46625L9.334 2.58758C9.28301 2.63787 9.2144 2.66624 9.14279 2.66667H8.39583C8.03669 2.66667 7.69225 2.80934 7.43829 3.06329C7.18434 3.31725 7.04167 3.66169 7.04167 4.02083V4.5625C7.04167 4.63433 7.01313 4.70322 6.96234 4.75401C6.91155 4.8048 6.84266 4.83333 6.77084 4.83333C6.41169 4.83333 6.06725 4.976 5.81329 5.22996C5.55934 5.48391 5.41667 5.82835 5.41667 6.1875V6.45833C5.41667 6.88931 5.58787 7.30263 5.89262 7.60738C6.19737 7.91213 6.61069 8.08333 7.04167 8.08333H8.66667C8.81033 8.08333 8.9481 8.1404 9.04968 8.24198C9.15127 8.34356 9.20833 8.48134 9.20833 8.625V9.14608C9.20936 9.50488 9.35183 9.8488 9.60483 10.1032L10.329 10.8274C9.44692 11.7126 8.28513 12.2645 7.04167 12.389Z" fill="white"/>
</svg>
