<svg width="14" height="13" viewBox="0 0 14 13" fill="none" xmlns="http://www.w3.org/2000/svg">
<path d="M7 0C5.71442 0 4.45772 0.381218 3.3888 1.09545C2.31988 1.80968 1.48676 2.82484 0.994786 4.01256C0.502816 5.20028 0.374095 6.50721 0.624899 7.76809C0.875702 9.02896 1.49477 10.1872 2.40381 11.0962C3.31285 12.0052 4.47104 12.6243 5.73191 12.8751C6.99279 13.1259 8.29972 12.9972 9.48744 12.5052C10.6752 12.0132 11.6903 11.1801 12.4046 10.1112C13.1188 9.04228 13.5 7.78558 13.5 6.5C13.4981 4.77666 12.8127 3.12445 11.5941 1.90586C10.3756 0.687282 8.72334 0.00186392 7 0ZM12.4167 6.5C12.4173 7.56151 12.1041 8.59951 11.5164 9.4835L10.8708 8.83729C10.8201 8.78653 10.7917 8.71777 10.7917 8.64608V8.125C10.7917 7.69402 10.6205 7.2807 10.3157 6.97595C10.011 6.6712 9.59764 6.5 9.16667 6.5H7.54167C7.39801 6.5 7.26023 6.44293 7.15865 6.34135C7.05707 6.23977 7 6.10199 7 5.95833V5.6875C7 5.61567 7.02854 5.54678 7.07933 5.49599C7.13012 5.4452 7.19901 5.41667 7.27084 5.41667C7.62998 5.41667 7.97442 5.27399 8.22837 5.02004C8.48233 4.76608 8.625 4.42165 8.625 4.0625V3.52083C8.625 3.449 8.65354 3.38012 8.70433 3.32932C8.75512 3.27853 8.82401 3.25 8.89583 3.25H9.64279C10.0016 3.24898 10.3455 3.10651 10.5999 2.8535L10.8041 2.64929C11.315 3.152 11.7207 3.75139 11.9976 4.41251C12.2744 5.07363 12.4169 5.78325 12.4167 6.5ZM1.60988 7.02162L3.32046 8.73221C3.47099 8.88371 3.65011 9.00381 3.84742 9.08554C4.04473 9.16727 4.25631 9.20901 4.46988 9.20833H5.91667C6.06033 9.20833 6.1981 9.2654 6.29968 9.36698C6.40127 9.46856 6.45834 9.60634 6.45834 9.75V11.889C5.21261 11.7619 4.04922 11.2077 3.16551 10.3205C2.28179 9.43338 1.73218 8.26784 1.60988 7.02162ZM7.54167 11.889V9.75C7.54167 9.31902 7.37046 8.9057 7.06572 8.60095C6.76097 8.2962 6.34765 8.125 5.91667 8.125H4.46988C4.39866 8.12505 4.32813 8.11107 4.26232 8.08383C4.19652 8.0566 4.13673 8.01666 4.08638 7.96629L1.67163 5.55154C1.82664 4.67036 2.19799 3.84144 2.75235 3.13916C3.30671 2.43689 4.02674 1.88322 4.84785 1.52783C5.66895 1.17245 6.56544 1.02647 7.45688 1.10299C8.34831 1.1795 9.20681 1.47613 9.95533 1.96625L9.834 2.08758C9.78301 2.13787 9.7144 2.16624 9.64279 2.16667H8.89583C8.53669 2.16667 8.19225 2.30934 7.93829 2.56329C7.68434 2.81725 7.54167 3.16169 7.54167 3.52083V4.0625C7.54167 4.13433 7.51313 4.20322 7.46234 4.25401C7.41155 4.3048 7.34266 4.33333 7.27084 4.33333C6.91169 4.33333 6.56725 4.476 6.31329 4.72996C6.05934 4.98391 5.91667 5.32835 5.91667 5.6875V5.95833C5.91667 6.38931 6.08787 6.80263 6.39262 7.10738C6.69737 7.41213 7.11069 7.58333 7.54167 7.58333H9.16667C9.31033 7.58333 9.4481 7.6404 9.54968 7.74198C9.65127 7.84356 9.70833 7.98134 9.70833 8.125V8.64608C9.70936 9.00488 9.85183 9.3488 10.1048 9.60321L10.829 10.3274C9.94692 11.2126 8.78513 11.7645 7.54167 11.889Z" fill="#BFBFBF"/>
</svg>
