<svg width="20" height="20" viewBox="0 0 20 20" fill="none" xmlns="http://www.w3.org/2000/svg">
<rect width="20" height="20" rx="4.31818" fill="white"/>
<path d="M4.96604 15.1819C4.80023 15.1819 4.63442 15.1188 4.5079 14.9923C4.25486 14.7393 4.25486 14.3295 4.5079 14.0764L13.5759 5.00802C13.8289 4.75498 14.2387 4.75498 14.4918 5.00802C14.7448 5.26063 14.7448 5.67128 14.4918 5.92388L5.42419 14.9923C5.29767 15.1188 5.13186 15.1819 4.96604 15.1819ZM8.20461 6.76159C8.20461 5.69028 7.33279 4.81845 6.26147 4.81845C5.19015 4.81845 4.31833 5.69028 4.31833 6.76159C4.31833 7.83291 5.19015 8.70474 6.26147 8.70474C7.33279 8.70474 8.20461 7.83291 8.20461 6.76159ZM6.90919 6.76159C6.90919 7.1187 6.61858 7.40931 6.26147 7.40931C5.90437 7.40931 5.61376 7.1187 5.61376 6.76159C5.61376 6.40449 5.90437 6.11388 6.26147 6.11388C6.61858 6.11388 6.90919 6.40449 6.90919 6.76159ZM14.6818 13.2387C14.6818 12.1674 13.8099 11.2956 12.7386 11.2956C11.6673 11.2956 10.7955 12.1674 10.7955 13.2387C10.7955 14.3101 11.6673 15.1819 12.7386 15.1819C13.8099 15.1819 14.6818 14.3101 14.6818 13.2387ZM13.3863 13.2387C13.3863 13.5958 13.0957 13.8864 12.7386 13.8864C12.3815 13.8864 12.0909 13.5958 12.0909 13.2387C12.0909 12.8816 12.3815 12.591 12.7386 12.591C13.0957 12.591 13.3863 12.8816 13.3863 13.2387Z" fill="#B20F1C"/>
</svg>
