<svg width="58" height="58" viewBox="0 0 58 58" fill="none" xmlns="http://www.w3.org/2000/svg">
<path d="M42.8258 7.25L39.411 2.82267C38.7308 1.94737 37.8603 1.23834 36.8654 0.749297C35.8706 0.260254 34.7775 0.00401902 33.669 0H24.331C23.2225 0.00401902 22.1294 0.260254 21.1346 0.749297C20.1397 1.23834 19.2692 1.94737 18.589 2.82267L15.1743 7.25H42.8258Z" fill="black"/>
<path d="M42.8258 7.25L39.411 2.82267C38.7308 1.94737 37.8603 1.23834 36.8654 0.749297C35.8706 0.260254 34.7775 0.00401902 33.669 0H24.331C23.2225 0.00401902 22.1294 0.260254 21.1346 0.749297C20.1397 1.23834 19.2692 1.94737 18.589 2.82267L15.1743 7.25H42.8258Z" fill="url(#paint0_linear_47_23)"/>
<path d="M29 43.5C34.3388 43.5 38.6667 39.1721 38.6667 33.8333C38.6667 28.4946 34.3388 24.1667 29 24.1667C23.6612 24.1667 19.3333 28.4946 19.3333 33.8333C19.3333 39.1721 23.6612 43.5 29 43.5Z" fill="black"/>
<path d="M29 43.5C34.3388 43.5 38.6667 39.1721 38.6667 33.8333C38.6667 28.4946 34.3388 24.1667 29 24.1667C23.6612 24.1667 19.3333 28.4946 19.3333 33.8333C19.3333 39.1721 23.6612 43.5 29 43.5Z" fill="url(#paint1_linear_47_23)"/>
<path d="M45.9167 12.0833H12.0833C8.87981 12.0872 5.8086 13.3615 3.54336 15.6267C1.27813 17.8919 0.00383732 20.9631 0 24.1667V45.9167C0.00383732 49.1202 1.27813 52.1914 3.54336 54.4566C5.8086 56.7219 8.87981 57.9962 12.0833 58H45.9167C49.1202 57.9962 52.1914 56.7219 54.4566 54.4566C56.7219 52.1914 57.9962 49.1202 58 45.9167V24.1667C57.9962 20.9631 56.7219 17.8919 54.4566 15.6267C52.1914 13.3615 49.1202 12.0872 45.9167 12.0833ZM29 48.3333C26.1322 48.3333 23.3287 47.4829 20.9442 45.8896C18.5597 44.2964 16.7012 42.0318 15.6037 39.3822C14.5063 36.7327 14.2191 33.8172 14.7786 31.0045C15.3381 28.1918 16.7191 25.6081 18.747 23.5803C20.7748 21.5524 23.3585 20.1714 26.1712 19.6119C28.9839 19.0525 31.8994 19.3396 34.5489 20.4371C37.1984 21.5346 39.463 23.3931 41.0563 25.7776C42.6496 28.1621 43.5 30.9655 43.5 33.8333C43.4962 37.6778 41.9673 41.3637 39.2488 44.0821C36.5304 46.8006 32.8445 48.3295 29 48.3333Z" fill="black"/>
<path d="M45.9167 12.0833H12.0833C8.87981 12.0872 5.8086 13.3615 3.54336 15.6267C1.27813 17.8919 0.00383732 20.9631 0 24.1667V45.9167C0.00383732 49.1202 1.27813 52.1914 3.54336 54.4566C5.8086 56.7219 8.87981 57.9962 12.0833 58H45.9167C49.1202 57.9962 52.1914 56.7219 54.4566 54.4566C56.7219 52.1914 57.9962 49.1202 58 45.9167V24.1667C57.9962 20.9631 56.7219 17.8919 54.4566 15.6267C52.1914 13.3615 49.1202 12.0872 45.9167 12.0833ZM29 48.3333C26.1322 48.3333 23.3287 47.4829 20.9442 45.8896C18.5597 44.2964 16.7012 42.0318 15.6037 39.3822C14.5063 36.7327 14.2191 33.8172 14.7786 31.0045C15.3381 28.1918 16.7191 25.6081 18.747 23.5803C20.7748 21.5524 23.3585 20.1714 26.1712 19.6119C28.9839 19.0525 31.8994 19.3396 34.5489 20.4371C37.1984 21.5346 39.463 23.3931 41.0563 25.7776C42.6496 28.1621 43.5 30.9655 43.5 33.8333C43.4962 37.6778 41.9673 41.3637 39.2488 44.0821C36.5304 46.8006 32.8445 48.3295 29 48.3333Z" fill="url(#paint2_linear_47_23)"/>
<defs>
<linearGradient id="paint0_linear_47_23" x1="22.3144" y1="-39.2708" x2="177.409" y2="69.8384" gradientUnits="userSpaceOnUse">
<stop stop-color="#2D2D2D"/>
<stop offset="1" stop-color="#821E26"/>
</linearGradient>
<linearGradient id="paint1_linear_47_23" x1="22.3144" y1="-39.2708" x2="177.409" y2="69.8384" gradientUnits="userSpaceOnUse">
<stop stop-color="#2D2D2D"/>
<stop offset="1" stop-color="#821E26"/>
</linearGradient>
<linearGradient id="paint2_linear_47_23" x1="22.3144" y1="-39.2708" x2="177.409" y2="69.8384" gradientUnits="userSpaceOnUse">
<stop stop-color="#2D2D2D"/>
<stop offset="1" stop-color="#821E26"/>
</linearGradient>
</defs>
</svg>
