<svg width="58" height="58" viewBox="0 0 58 58" fill="none" xmlns="http://www.w3.org/2000/svg">
<path d="M48.3333 0H9.66667C7.10291 0 4.64415 1.01846 2.8313 2.83134C1.01845 4.64422 0 7.10301 0 9.6668V38.6672C0 41.231 1.01845 43.6898 2.8313 45.5027C4.64415 47.3155 7.10291 48.334 9.66667 48.334H16.675L27.4316 57.4281C27.8679 57.7974 28.4211 58 28.9927 58C29.5644 58 30.1175 57.7974 30.5539 57.4281L41.325 48.334H48.3333C50.8971 48.334 53.3558 47.3155 55.1687 45.5027C56.9815 43.6898 58 41.231 58 38.6672V9.6668C58 7.10301 56.9815 4.64422 55.1687 2.83134C53.3558 1.01846 50.8971 0 48.3333 0ZM16.9167 12.0835H29C29.6409 12.0835 30.2556 12.3381 30.7088 12.7913C31.1621 13.2446 31.4167 13.8593 31.4167 14.5002C31.4167 15.1412 31.1621 15.7558 30.7088 16.2091C30.2556 16.6623 29.6409 16.9169 29 16.9169H16.9167C16.2757 16.9169 15.661 16.6623 15.2078 16.2091C14.7546 15.7558 14.5 15.1412 14.5 14.5002C14.5 13.8593 14.7546 13.2446 15.2078 12.7913C15.661 12.3381 16.2757 12.0835 16.9167 12.0835ZM41.0833 36.2505H16.9167C16.2757 36.2505 15.661 35.9959 15.2078 35.5427C14.7546 35.0895 14.5 34.4748 14.5 33.8338C14.5 33.1929 14.7546 32.5782 15.2078 32.1249C15.661 31.6717 16.2757 31.4171 16.9167 31.4171H41.0833C41.7243 31.4171 42.339 31.6717 42.7922 32.1249C43.2454 32.5782 43.5 33.1929 43.5 33.8338C43.5 34.4748 43.2454 35.0895 42.7922 35.5427C42.339 35.9959 41.7243 36.2505 41.0833 36.2505ZM41.0833 26.5837H16.9167C16.2757 26.5837 15.661 26.3291 15.2078 25.8759C14.7546 25.4227 14.5 24.808 14.5 24.167C14.5 23.5261 14.7546 22.9114 15.2078 22.4581C15.661 22.0049 16.2757 21.7503 16.9167 21.7503H41.0833C41.7243 21.7503 42.339 22.0049 42.7922 22.4581C43.2454 22.9114 43.5 23.5261 43.5 24.167C43.5 24.808 43.2454 25.4227 42.7922 25.8759C42.339 26.3291 41.7243 26.5837 41.0833 26.5837Z" fill="black"/>
<path d="M48.3333 0H9.66667C7.10291 0 4.64415 1.01846 2.8313 2.83134C1.01845 4.64422 0 7.10301 0 9.6668V38.6672C0 41.231 1.01845 43.6898 2.8313 45.5027C4.64415 47.3155 7.10291 48.334 9.66667 48.334H16.675L27.4316 57.4281C27.8679 57.7974 28.4211 58 28.9927 58C29.5644 58 30.1175 57.7974 30.5539 57.4281L41.325 48.334H48.3333C50.8971 48.334 53.3558 47.3155 55.1687 45.5027C56.9815 43.6898 58 41.231 58 38.6672V9.6668C58 7.10301 56.9815 4.64422 55.1687 2.83134C53.3558 1.01846 50.8971 0 48.3333 0ZM16.9167 12.0835H29C29.6409 12.0835 30.2556 12.3381 30.7088 12.7913C31.1621 13.2446 31.4167 13.8593 31.4167 14.5002C31.4167 15.1412 31.1621 15.7558 30.7088 16.2091C30.2556 16.6623 29.6409 16.9169 29 16.9169H16.9167C16.2757 16.9169 15.661 16.6623 15.2078 16.2091C14.7546 15.7558 14.5 15.1412 14.5 14.5002C14.5 13.8593 14.7546 13.2446 15.2078 12.7913C15.661 12.3381 16.2757 12.0835 16.9167 12.0835ZM41.0833 36.2505H16.9167C16.2757 36.2505 15.661 35.9959 15.2078 35.5427C14.7546 35.0895 14.5 34.4748 14.5 33.8338C14.5 33.1929 14.7546 32.5782 15.2078 32.1249C15.661 31.6717 16.2757 31.4171 16.9167 31.4171H41.0833C41.7243 31.4171 42.339 31.6717 42.7922 32.1249C43.2454 32.5782 43.5 33.1929 43.5 33.8338C43.5 34.4748 43.2454 35.0895 42.7922 35.5427C42.339 35.9959 41.7243 36.2505 41.0833 36.2505ZM41.0833 26.5837H16.9167C16.2757 26.5837 15.661 26.3291 15.2078 25.8759C14.7546 25.4227 14.5 24.808 14.5 24.167C14.5 23.5261 14.7546 22.9114 15.2078 22.4581C15.661 22.0049 16.2757 21.7503 16.9167 21.7503H41.0833C41.7243 21.7503 42.339 22.0049 42.7922 22.4581C43.2454 22.9114 43.5 23.5261 43.5 24.167C43.5 24.808 43.2454 25.4227 42.7922 25.8759C42.339 26.3291 41.7243 26.5837 41.0833 26.5837Z" fill="url(#paint0_linear_47_26)"/>
<defs>
<linearGradient id="paint0_linear_47_26" x1="22.3144" y1="-39.2708" x2="177.409" y2="69.8384" gradientUnits="userSpaceOnUse">
<stop stop-color="#2D2D2D"/>
<stop offset="1" stop-color="#821E26"/>
</linearGradient>
</defs>
</svg>
