<svg width="17" height="18" viewBox="0 0 17 18" fill="none" xmlns="http://www.w3.org/2000/svg">
<path d="M8.5 0.5C3.81296 0.5 0 4.31296 0 9C0 13.687 3.81296 17.5 8.5 17.5C13.187 17.5 17 13.687 17 9C17 4.31296 13.187 0.5 8.5 0.5ZM8.5 16.0833C4.59425 16.0833 1.41667 12.9058 1.41667 9C1.41667 5.09425 4.59425 1.91667 8.5 1.91667C12.4058 1.91667 15.5833 5.09425 15.5833 9C15.5833 12.9058 12.4058 16.0833 8.5 16.0833ZM11.3333 10.4167C11.3333 11.5883 10.3799 12.5417 9.20833 12.5417V13.25C9.20833 13.6417 8.89171 13.9583 8.5 13.9583C8.10829 13.9583 7.79167 13.6417 7.79167 13.25V12.5417H7.60183C6.84604 12.5417 6.14054 12.1351 5.76158 11.4799C5.56537 11.1406 5.68154 10.7078 6.01942 10.5123C6.35871 10.3147 6.79221 10.4323 6.987 10.7701C7.11379 10.9897 7.34896 11.125 7.60113 11.125H9.20763C9.59863 11.125 9.91596 10.8077 9.91596 10.4167C9.91596 10.1489 9.724 9.92225 9.45979 9.87833L7.30575 9.51921C6.35517 9.36125 5.66596 8.54667 5.66596 7.58333C5.66596 6.41175 6.61937 5.45833 7.79096 5.45833V4.75C7.79096 4.359 8.10758 4.04167 8.49929 4.04167C8.891 4.04167 9.20763 4.359 9.20763 4.75V5.45833H9.39746C10.1533 5.45833 10.8588 5.86563 11.2377 6.52083C11.4339 6.85942 11.3178 7.29221 10.9799 7.48842C10.6399 7.68463 10.2071 7.56846 10.0123 7.22988C9.8855 7.011 9.65033 6.87571 9.39817 6.87571H7.79167C7.40067 6.87571 7.08333 7.19375 7.08333 7.58404C7.08333 7.85179 7.27529 8.07846 7.5395 8.12237L9.69354 8.4815C10.6441 8.63946 11.3333 9.45404 11.3333 10.4174V10.4167Z" fill="url(#paint0_linear_2_18)"/>
<defs>
<linearGradient id="paint0_linear_2_18" x1="6.54042" y1="-11.0104" x2="30.1357" y2="1.27814" gradientUnits="userSpaceOnUse">
<stop stop-color="#2D2D2D"/>
<stop offset="1" stop-color="#821E26"/>
</linearGradient>
</defs>
</svg>
