<svg width="17" height="18" viewBox="0 0 17 18" fill="none" xmlns="http://www.w3.org/2000/svg">
<path d="M0.708333 3.86469H2.64633C2.79837 4.42408 3.13025 4.91789 3.59077 5.26995C4.0513 5.62201 4.61488 5.81275 5.19456 5.81275C5.77425 5.81275 6.33783 5.62201 6.79835 5.26995C7.25888 4.91789 7.59076 4.42408 7.74279 3.86469H16.2917C16.4795 3.86469 16.6597 3.79007 16.7925 3.65723C16.9254 3.5244 17 3.34423 17 3.15638C17 2.96852 16.9254 2.78835 16.7925 2.65552C16.6597 2.52268 16.4795 2.44806 16.2917 2.44806H7.74279C7.59076 1.88868 7.25888 1.39486 6.79835 1.0428C6.33783 0.690744 5.77425 0.5 5.19456 0.5C4.61488 0.5 4.0513 0.690744 3.59077 1.0428C3.13025 1.39486 2.79837 1.88868 2.64633 2.44806H0.708333C0.520472 2.44806 0.340304 2.52268 0.207466 2.65552C0.0746278 2.78835 0 2.96852 0 3.15638C0 3.34423 0.0746278 3.5244 0.207466 3.65723C0.340304 3.79007 0.520472 3.86469 0.708333 3.86469ZM5.19421 1.91682C5.43938 1.91682 5.67904 1.98952 5.88288 2.12572C6.08673 2.26193 6.24561 2.45552 6.33943 2.68202C6.43326 2.90852 6.4578 3.15775 6.40997 3.3982C6.36214 3.63865 6.24408 3.85952 6.07073 4.03287C5.89737 4.20623 5.67649 4.32429 5.43604 4.37211C5.19558 4.41994 4.94634 4.3954 4.71984 4.30158C4.49334 4.20776 4.29974 4.04888 4.16353 3.84504C4.02733 3.64119 3.95463 3.40154 3.95463 3.15638C3.955 2.82774 4.08572 2.51267 4.31811 2.28029C4.55049 2.04791 4.86557 1.91719 5.19421 1.91682Z" fill="url(#paint0_linear_2_6)"/>
<path d="M16.2917 8.29168H14.3537C14.2019 7.73217 13.8701 7.23818 13.4097 6.88597C12.9492 6.53377 12.3855 6.34293 11.8058 6.34293C11.226 6.34293 10.6624 6.53377 10.2019 6.88597C9.74144 7.23818 9.4097 7.73217 9.25792 8.29168H0.708333C0.520472 8.29168 0.340304 8.36631 0.207466 8.49914C0.0746278 8.63198 0 8.81214 0 9C0 9.18786 0.0746278 9.36802 0.207466 9.50086C0.340304 9.63369 0.520472 9.70832 0.708333 9.70832H9.25792C9.4097 10.2678 9.74144 10.7618 10.2019 11.114C10.6624 11.4662 11.226 11.6571 11.8058 11.6571C12.3855 11.6571 12.9492 11.4662 13.4097 11.114C13.8701 10.7618 14.2019 10.2678 14.3537 9.70832H16.2917C16.4795 9.70832 16.6597 9.63369 16.7925 9.50086C16.9254 9.36802 17 9.18786 17 9C17 8.81214 16.9254 8.63198 16.7925 8.49914C16.6597 8.36631 16.4795 8.29168 16.2917 8.29168ZM11.8058 10.2396C11.5606 10.2396 11.321 10.1669 11.1171 10.0307C10.9133 9.89445 10.7544 9.70086 10.6606 9.47436C10.5667 9.24786 10.5422 8.99862 10.59 8.75817C10.6379 8.51772 10.7559 8.29686 10.9293 8.1235C11.1026 7.95015 11.3235 7.83209 11.564 7.78426C11.8044 7.73643 12.0537 7.76098 12.2802 7.8548C12.5067 7.94862 12.7003 8.1075 12.8365 8.31134C12.9727 8.51518 13.0454 8.75484 13.0454 9C13.045 9.32864 12.9143 9.6437 12.6819 9.87608C12.4495 10.1085 12.1344 10.2392 11.8058 10.2396Z" fill="url(#paint1_linear_2_6)"/>
<path d="M16.2917 14.1353H7.74279C7.59076 13.5759 7.25888 13.0821 6.79835 12.7301C6.33783 12.378 5.77425 12.1872 5.19456 12.1872C4.61488 12.1872 4.0513 12.378 3.59077 12.7301C3.13025 13.0821 2.79837 13.5759 2.64633 14.1353H0.708333C0.520472 14.1353 0.340304 14.2099 0.207466 14.3428C0.0746278 14.4756 0 14.6558 0 14.8436C0 15.0315 0.0746278 15.2116 0.207466 15.3445C0.340304 15.4773 0.520472 15.5519 0.708333 15.5519H2.64633C2.79837 16.1113 3.13025 16.6051 3.59077 16.9572C4.0513 17.3093 4.61488 17.5 5.19456 17.5C5.77425 17.5 6.33783 17.3093 6.79835 16.9572C7.25888 16.6051 7.59076 16.1113 7.74279 15.5519H16.2917C16.4795 15.5519 16.6597 15.4773 16.7925 15.3445C16.9254 15.2116 17 15.0315 17 14.8436C17 14.6558 16.9254 14.4756 16.7925 14.3428C16.6597 14.2099 16.4795 14.1353 16.2917 14.1353ZM5.19421 16.0832C4.94904 16.0832 4.70938 16.0105 4.50553 15.8743C4.30168 15.7381 4.1428 15.5445 4.04898 15.318C3.95516 15.0915 3.93061 14.8422 3.97844 14.6018C4.02627 14.3613 4.14433 14.1405 4.31769 13.9671C4.49105 13.7938 4.71192 13.6757 4.95238 13.6279C5.19283 13.5801 5.44207 13.6046 5.66858 13.6984C5.89508 13.7922 6.08868 13.9511 6.22488 14.155C6.36109 14.3588 6.43379 14.5985 6.43379 14.8436C6.43323 15.1722 6.30245 15.4872 6.07011 15.7195C5.83776 15.9518 5.52279 16.0826 5.19421 16.0832Z" fill="url(#paint2_linear_2_6)"/>
<defs>
<linearGradient id="paint0_linear_2_6" x1="6.54042" y1="-11.0104" x2="30.1357" y2="1.27814" gradientUnits="userSpaceOnUse">
<stop stop-color="#2D2D2D"/>
<stop offset="1" stop-color="#821E26"/>
</linearGradient>
<linearGradient id="paint1_linear_2_6" x1="6.54042" y1="-11.0104" x2="30.1357" y2="1.27814" gradientUnits="userSpaceOnUse">
<stop stop-color="#2D2D2D"/>
<stop offset="1" stop-color="#821E26"/>
</linearGradient>
<linearGradient id="paint2_linear_2_6" x1="6.54042" y1="-11.0104" x2="30.1357" y2="1.27814" gradientUnits="userSpaceOnUse">
<stop stop-color="#2D2D2D"/>
<stop offset="1" stop-color="#821E26"/>
</linearGradient>
</defs>
</svg>
