<svg width="59" height="56" viewBox="0 0 59 56" fill="none" xmlns="http://www.w3.org/2000/svg">
<path d="M0.5 24.382V18.3815C0.5 17.4266 0.881919 16.5109 1.56174 15.8357C2.24156 15.1605 3.16359 14.7812 4.125 14.7812C4.125 14.7812 6.44258 14.7812 6.54167 14.7812C8.03697 11.4807 9.80475 8.30883 11.8269 5.298C13.0344 3.73858 14.7076 2.5985 16.6071 2.04093C20.8628 -0.013643 38.1372 -0.013643 42.3929 2.04093C44.2924 2.5985 45.9656 3.73858 47.1731 5.298C49.1952 8.30883 50.963 11.4807 52.4583 14.7812C52.5574 14.7812 54.875 14.7812 54.875 14.7812C55.8364 14.7812 56.7584 15.1605 57.4383 15.8357C58.1181 16.5109 58.5 17.4266 58.5 18.3815V24.382C48.8976 22.9443 39.2095 22.1425 29.5 21.9818C19.7905 22.1425 10.1024 22.9443 0.5 24.382ZM58.5 29.2376V33.9828C58.5 36.5291 57.4815 38.9711 55.6687 40.7716C53.8558 42.5721 51.3971 43.5836 48.8333 43.5836H10.1667C7.60291 43.5836 5.14415 42.5721 3.3313 40.7716C1.51845 38.9711 0.5 36.5291 0.5 33.9828V29.2472C10.1011 27.7893 19.7891 26.9658 29.5 26.7822C39.2109 26.9658 48.8989 27.7893 58.5 29.2472V29.2376ZM15 36.383C15 35.7464 14.7454 35.1359 14.2922 34.6858C13.839 34.2357 13.2243 33.9828 12.5833 33.9828C11.9424 33.9828 11.3277 34.2357 10.8745 34.6858C10.4213 35.1359 10.1667 35.7464 10.1667 36.383C10.1667 37.0196 10.4213 37.6301 10.8745 38.0802C11.3277 38.5303 11.9424 38.7832 12.5833 38.7832C13.2243 38.7832 13.839 38.5303 14.2922 38.0802C14.7454 37.6301 15 37.0196 15 36.383ZM48.8333 36.383C48.8333 35.7464 48.5787 35.1359 48.1255 34.6858C47.6723 34.2357 47.0576 33.9828 46.4167 33.9828C45.7757 33.9828 45.161 34.2357 44.7078 34.6858C44.2546 35.1359 44 35.7464 44 36.383C44 37.0196 44.2546 37.6301 44.7078 38.0802C45.161 38.5303 45.7757 38.7832 46.4167 38.7832C47.0576 38.7832 47.6723 38.5303 48.1255 38.0802C48.5787 37.6301 48.8333 37.0196 48.8333 36.383ZM17.2765 48.384C18.6951 57.8744 4.0525 57.8696 5.4735 48.384H17.2765ZM53.5265 48.384C54.9451 57.8744 40.3025 57.8696 41.7235 48.384H53.5265Z" fill="black"/>
<path d="M0.5 24.382V18.3815C0.5 17.4266 0.881919 16.5109 1.56174 15.8357C2.24156 15.1605 3.16359 14.7812 4.125 14.7812C4.125 14.7812 6.44258 14.7812 6.54167 14.7812C8.03697 11.4807 9.80475 8.30883 11.8269 5.298C13.0344 3.73858 14.7076 2.5985 16.6071 2.04093C20.8628 -0.013643 38.1372 -0.013643 42.3929 2.04093C44.2924 2.5985 45.9656 3.73858 47.1731 5.298C49.1952 8.30883 50.963 11.4807 52.4583 14.7812C52.5574 14.7812 54.875 14.7812 54.875 14.7812C55.8364 14.7812 56.7584 15.1605 57.4383 15.8357C58.1181 16.5109 58.5 17.4266 58.5 18.3815V24.382C48.8976 22.9443 39.2095 22.1425 29.5 21.9818C19.7905 22.1425 10.1024 22.9443 0.5 24.382ZM58.5 29.2376V33.9828C58.5 36.5291 57.4815 38.9711 55.6687 40.7716C53.8558 42.5721 51.3971 43.5836 48.8333 43.5836H10.1667C7.60291 43.5836 5.14415 42.5721 3.3313 40.7716C1.51845 38.9711 0.5 36.5291 0.5 33.9828V29.2472C10.1011 27.7893 19.7891 26.9658 29.5 26.7822C39.2109 26.9658 48.8989 27.7893 58.5 29.2472V29.2376ZM15 36.383C15 35.7464 14.7454 35.1359 14.2922 34.6858C13.839 34.2357 13.2243 33.9828 12.5833 33.9828C11.9424 33.9828 11.3277 34.2357 10.8745 34.6858C10.4213 35.1359 10.1667 35.7464 10.1667 36.383C10.1667 37.0196 10.4213 37.6301 10.8745 38.0802C11.3277 38.5303 11.9424 38.7832 12.5833 38.7832C13.2243 38.7832 13.839 38.5303 14.2922 38.0802C14.7454 37.6301 15 37.0196 15 36.383ZM48.8333 36.383C48.8333 35.7464 48.5787 35.1359 48.1255 34.6858C47.6723 34.2357 47.0576 33.9828 46.4167 33.9828C45.7757 33.9828 45.161 34.2357 44.7078 34.6858C44.2546 35.1359 44 35.7464 44 36.383C44 37.0196 44.2546 37.6301 44.7078 38.0802C45.161 38.5303 45.7757 38.7832 46.4167 38.7832C47.0576 38.7832 47.6723 38.5303 48.1255 38.0802C48.5787 37.6301 48.8333 37.0196 48.8333 36.383ZM17.2765 48.384C18.6951 57.8744 4.0525 57.8696 5.4735 48.384H17.2765ZM53.5265 48.384C54.9451 57.8744 40.3025 57.8696 41.7235 48.384H53.5265Z" fill="url(#paint0_linear_47_32)"/>
<defs>
<linearGradient id="paint0_linear_47_32" x1="22.8144" y1="-36.7396" x2="172.361" y2="74.2049" gradientUnits="userSpaceOnUse">
<stop stop-color="#2D2D2D"/>
<stop offset="1" stop-color="#821E26"/>
</linearGradient>
</defs>
</svg>
