<svg width="15" height="14" viewBox="0 0 15 14" fill="none" xmlns="http://www.w3.org/2000/svg">
<path d="M12.5088 1.91502C11.0402 0.597323 9.12422 -0.0864913 7.16771 0.00876941C5.21121 0.10403 3.36826 0.970864 2.0302 2.42521C0.692143 3.87956 -0.0356547 5.80689 0.00134466 7.79796C0.038344 9.78903 0.837227 11.687 2.22836 13.089C2.81579 13.6746 3.60627 14.0017 4.42899 13.9997H10.556C11.335 14.0105 12.0883 13.7164 12.66 13.1783C13.4121 12.4483 14.0081 11.5684 14.4106 10.5936C14.8131 9.61888 15.0135 8.5702 14.9993 7.51313C14.9851 6.45606 14.7566 5.41333 14.3281 4.45011C13.8996 3.48689 13.2803 2.62388 12.5088 1.91502ZM11.7987 12.2516C11.459 12.5646 11.0144 12.7337 10.556 12.7241H4.42899C3.93418 12.7258 3.45865 12.5292 3.10535 12.1769C2.21049 11.2877 1.59765 10.1467 1.34561 8.90052C1.09357 7.65439 1.21386 6.3601 1.691 5.18402C2.16814 4.00793 2.98034 3.0038 4.02319 2.30068C5.06605 1.59756 6.2919 1.2276 7.54318 1.23834C8.79447 1.24908 10.014 1.64004 11.045 2.36095C12.0761 3.08187 12.8715 4.0998 13.329 5.28391C13.7865 6.46802 13.8853 7.76419 13.6126 9.00582C13.3399 10.2474 12.7082 11.3778 11.7987 12.2516ZM12.5088 7.62189C12.5108 8.30145 12.378 8.97443 12.1184 9.60067C11.8589 10.2269 11.4779 10.7936 10.9983 11.2668C10.8793 11.3852 10.719 11.4507 10.5525 11.4489C10.386 11.4471 10.2271 11.3782 10.1106 11.2573C9.99414 11.1363 9.92971 10.9733 9.93147 10.804C9.93324 10.6348 10.0011 10.4732 10.12 10.3548C12.7177 7.83172 10.4964 3.2786 6.95206 3.83474C6.87047 3.84672 6.78735 3.84224 6.70745 3.82156C6.62756 3.80088 6.55245 3.7644 6.48642 3.71421C6.35307 3.61284 6.26479 3.46177 6.241 3.29422C6.22922 3.21126 6.23363 3.12676 6.25397 3.04553C6.27431 2.9643 6.31019 2.88794 6.35956 2.82081C6.40893 2.75368 6.47082 2.6971 6.5417 2.65428C6.61258 2.61147 6.69105 2.58327 6.77265 2.5713C7.48457 2.46948 8.20968 2.52384 8.8992 2.73074C9.58872 2.93763 10.2267 3.29226 10.7701 3.77076C11.3136 4.24926 11.7499 4.84054 12.0498 5.50482C12.3498 6.1691 12.5063 6.89098 12.5088 7.62189ZM4.85933 10.3542C4.97846 10.4726 5.04644 10.6342 5.04832 10.8036C5.0502 10.973 4.98583 11.1361 4.86937 11.2573C4.75291 11.3784 4.59389 11.4475 4.42731 11.4494C4.26072 11.4513 4.10021 11.3859 3.98109 11.2675C3.41535 10.7072 2.98814 10.0188 2.73441 9.25843C2.48069 8.49809 2.40766 7.68746 2.52132 6.89291C2.5331 6.80995 2.56084 6.73016 2.60295 6.6581C2.64506 6.58604 2.70072 6.52312 2.76675 6.47292C2.83277 6.42273 2.90788 6.38625 2.98777 6.36557C3.06767 6.34489 3.15079 6.34041 3.23239 6.35239C3.31398 6.36436 3.39246 6.39256 3.46334 6.43538C3.53422 6.47819 3.59611 6.53478 3.64548 6.6019C3.69485 6.66903 3.73073 6.74539 3.75107 6.82662C3.77141 6.90785 3.77582 6.99235 3.76404 7.07531C3.67848 7.67096 3.73315 8.27875 3.92356 8.84875C4.11397 9.41874 4.43467 9.93467 4.85933 10.3542ZM8.74494 7.62189C8.74486 7.80342 8.70666 7.98284 8.63292 8.14817C8.55917 8.31349 8.45156 8.4609 8.31728 8.58056C8.18301 8.70021 8.02516 8.78935 7.85429 8.84201C7.68342 8.89468 7.50346 8.90966 7.32643 8.88595C7.14941 8.86224 6.97941 8.80038 6.82778 8.70452C6.67615 8.60867 6.5464 8.48101 6.44718 8.33008C6.34797 8.17915 6.28158 8.00844 6.25247 7.82934C6.22335 7.65024 6.23216 7.46688 6.27833 7.29152L3.9102 4.88389C3.79593 4.76361 3.7327 4.6025 3.73413 4.43528C3.73556 4.26805 3.80153 4.10809 3.91784 3.98984C4.03415 3.87159 4.19149 3.80451 4.35597 3.80306C4.52045 3.80161 4.67892 3.86589 4.79723 3.98207L7.16535 6.3897C7.3512 6.34008 7.54575 6.33434 7.73411 6.37293C7.92247 6.41151 8.09965 6.4934 8.2521 6.61232C8.40454 6.73124 8.52821 6.88404 8.61363 7.05902C8.69905 7.23401 8.74397 7.42654 8.74494 7.62189Z" fill="#B20F1C"/>
</svg>
