<svg width="10" height="10" viewBox="0 0 10 10" fill="none" xmlns="http://www.w3.org/2000/svg">
<path d="M9.58273 4.58307C9.47206 4.58307 9.36592 4.53918 9.28767 4.46105C9.20942 4.38293 9.16545 4.27697 9.16545 4.16649C9.16457 3.2829 8.81259 2.43575 8.18675 1.81096C7.56091 1.18616 6.71234 0.834767 5.82727 0.833885C5.7166 0.833885 5.61047 0.789996 5.53222 0.711872C5.45396 0.633749 5.41 0.527792 5.41 0.417309C5.41 0.306826 5.45396 0.200868 5.53222 0.122745C5.61047 0.0446222 5.7166 0.000733034 5.82727 0.000733034C6.93358 0.00194593 7.99422 0.441227 8.77649 1.2222C9.55877 2.00316 9.99879 3.06204 10 4.16649C10 4.27697 9.95604 4.38293 9.87778 4.46105C9.79953 4.53918 9.6934 4.58307 9.58273 4.58307ZM8.33091 4.16649C8.33091 3.50359 8.06713 2.86785 7.59761 2.39911C7.12809 1.93037 6.49128 1.66704 5.82727 1.66704C5.7166 1.66704 5.61047 1.71093 5.53222 1.78905C5.45396 1.86717 5.41 1.97313 5.41 2.08361C5.41 2.19409 5.45396 2.30005 5.53222 2.37818C5.61047 2.4563 5.7166 2.50019 5.82727 2.50019C6.26994 2.50019 6.69448 2.67574 7.0075 2.98824C7.32051 3.30073 7.49636 3.72456 7.49636 4.16649C7.49636 4.27697 7.54033 4.38293 7.61858 4.46105C7.69683 4.53918 7.80297 4.58307 7.91364 4.58307C8.0243 4.58307 8.13044 4.53918 8.20869 4.46105C8.28695 4.38293 8.33091 4.27697 8.33091 4.16649ZM9.24182 9.23372L9.62153 8.79673C9.86322 8.55467 9.99893 8.22683 9.99893 7.88506C9.99893 7.54328 9.86322 7.21544 9.62153 6.97338C9.6086 6.96047 8.60464 6.18938 8.60464 6.18938C8.36369 5.9604 8.04363 5.8329 7.71097 5.83337C7.3783 5.83383 7.05861 5.96223 6.8183 6.19188L6.02297 6.8609C5.37377 6.59267 4.78404 6.19904 4.28765 5.70262C3.79127 5.20621 3.398 4.61678 3.13044 3.9682L3.79808 3.17671C4.02829 2.93683 4.15705 2.61761 4.1576 2.2854C4.15814 1.95319 4.03042 1.63356 3.801 1.39293C3.801 1.39293 3.02779 0.391898 3.01485 0.378984C2.77678 0.139764 2.45399 0.00365824 2.11623 7.26711e-05C1.77846 -0.00351289 1.45285 0.12571 1.20973 0.359821L0.729868 0.776397C-2.10508 4.05985 3.99962 10.1073 7.39705 9.99855C7.74013 10.0005 8.08012 9.93388 8.39697 9.80252C8.71381 9.67116 9.00108 9.47775 9.24182 9.23372Z" fill="white"/>
</svg>
