<svg width="36" height="36" viewBox="0 0 36 36" fill="none" xmlns="http://www.w3.org/2000/svg">
<path fill-rule="evenodd" clip-rule="evenodd" d="M18 0C27.9411 0 36 8.05887 36 18C36 27.9411 27.9411 36 18 36C8.05887 36 0 27.9411 0 18C0 8.05887 8.05887 0 18 0ZM18.7476 7.29114L18.7454 22.0479C18.6843 23.7005 17.3569 25.0267 15.73 25.0268C15.2239 25.0268 14.7476 24.897 14.3286 24.6712C13.3671 24.1527 12.7083 23.1204 12.7083 21.9317C12.7083 20.2245 14.0638 18.8357 15.7291 18.8357C16.04 18.8357 16.3378 18.8885 16.62 18.9786V15.2195C16.3283 15.1794 16.0322 15.1537 15.7291 15.1537C12.0814 15.1537 9.11392 18.1942 9.11392 21.9317C9.11394 24.2244 10.2322 26.254 11.9375 27.4811C13.0115 28.2539 14.319 28.7089 15.7282 28.7089C19.3749 28.7088 22.3424 25.6692 22.3425 21.9317V14.4483C23.7517 15.4853 25.4787 16.0958 27.3418 16.0958L27.3409 12.4146C26.3375 12.4146 25.4021 12.1085 24.6183 11.5847C23.4921 10.8324 22.6796 9.62852 22.4261 8.22567C22.3721 7.92224 22.3416 7.61063 22.3416 7.29114H18.7476Z" fill="white"/>
</svg>
