<svg width="15" height="16" viewBox="0 0 15 16" fill="none" xmlns="http://www.w3.org/2000/svg">
<path d="M1.66066 0.525092C1.08925 0.628911 0.514269 1.04418 0.239278 1.55254C0.114282 1.78881 0 2.23273 0 2.49048C0.00357131 3.33893 0.564267 4.13368 1.34638 4.39501L1.57138 4.47019V11.5442L1.34638 11.6193C0.564267 11.8807 0.00357131 12.6754 0 13.5239C0 13.7816 0.114282 14.2255 0.239278 14.4618C0.374988 14.7124 0.714262 15.0704 0.960683 15.2172C1.3071 15.4284 1.57138 15.5 1.99993 15.5C2.42849 15.5 2.69277 15.4284 3.03919 15.2172C3.28561 15.0704 3.62488 14.7124 3.76059 14.4618C3.88559 14.2255 3.99987 13.7816 3.99987 13.5239C3.9963 12.6754 3.4356 11.8807 2.65349 11.6193L2.42849 11.5442V8.43677H7.0712V11.5442L6.84621 11.6193C6.06409 11.8807 5.50339 12.6754 5.49982 13.5239C5.49982 13.7816 5.6141 14.2255 5.7391 14.4618C5.87481 14.7124 6.21408 15.0704 6.4605 15.2172C6.80692 15.4284 7.0712 15.5 7.49976 15.5C7.92831 15.5 8.19259 15.4284 8.53901 15.2172C8.78543 15.0704 9.1247 14.7124 9.26041 14.4618C9.38541 14.2255 9.49969 13.7816 9.49969 13.5239C9.49612 12.6754 8.93542 11.8807 8.15331 11.6193L7.92831 11.5442V8.43677L10.5532 8.42961L13.1781 8.41887L13.2924 8.30073L13.4103 8.18617L13.4317 4.46661L13.6531 4.39501C14.1174 4.2375 14.5602 3.85444 14.7817 3.41411C15.4495 2.07163 14.5067 0.514353 13.021 0.510773C11.8996 0.507193 11.0211 1.38786 11.0211 2.51196C11.0211 2.93798 11.1211 3.26017 11.3603 3.62174C11.6139 4.00122 11.9889 4.28045 12.4389 4.42365L12.571 4.47019V7.57758H7.92831V4.47019L8.15331 4.39501C8.93542 4.13368 9.49612 3.33893 9.49969 2.49048C9.49969 2.23273 9.38541 1.78881 9.26041 1.55254C9.1247 1.30194 8.78543 0.943946 8.53901 0.797168C8.19259 0.585952 7.92831 0.514353 7.49976 0.514353C7.0712 0.514353 6.80692 0.585952 6.4605 0.797168C6.21408 0.943946 5.87481 1.30194 5.7391 1.55254C5.6141 1.78881 5.49982 2.23273 5.49982 2.49048C5.50339 3.33893 6.06409 4.13368 6.84621 4.39501L7.0712 4.47019V7.57758H2.42849V4.47019L2.65349 4.39501C3.4356 4.13368 3.9963 3.33893 3.99987 2.49048C3.99987 2.23273 3.88559 1.78881 3.76059 1.55254C3.62488 1.30194 3.28561 0.943946 3.03919 0.797168C2.64634 0.557312 2.09279 0.446334 1.66066 0.525092ZM2.49278 1.4702C2.89991 1.67783 3.1249 2.04299 3.1249 2.49406C3.1249 2.94871 2.90348 3.30671 2.4892 3.52151C2.33207 3.60384 2.25707 3.61816 1.99993 3.62174C1.73923 3.62174 1.6678 3.60742 1.49281 3.52151C1.13211 3.34609 0.896399 3.00241 0.864258 2.6122C0.821402 2.06447 1.12496 1.5955 1.6428 1.40576C1.87494 1.31984 2.25707 1.34848 2.49278 1.4702ZM7.98188 1.45946C8.82828 1.86041 8.86043 3.03821 8.03545 3.49287C7.82117 3.611 7.78189 3.62174 7.49976 3.62174C7.22119 3.62174 7.17477 3.611 6.9712 3.50003C6.08195 3.01673 6.18551 1.75301 7.14262 1.40576C7.36762 1.32342 7.74975 1.34848 7.98188 1.45946ZM13.4567 1.45588C13.6781 1.55612 13.9424 1.81745 14.0424 2.04299C14.1031 2.18261 14.1245 2.29001 14.1245 2.51196C14.1245 2.86638 14.0424 3.06327 13.796 3.31029C13.2496 3.85802 12.3139 3.69692 11.9746 3.00241C11.8389 2.73034 11.8318 2.31864 11.9568 2.04657C12.1032 1.72795 12.4103 1.4702 12.7389 1.38428C12.9282 1.33774 13.2639 1.36996 13.4567 1.45588ZM2.5142 12.4964C3.05704 12.7649 3.29989 13.4559 3.04276 14.0036C2.9249 14.247 2.7142 14.4582 2.46778 14.5692C2.21064 14.6909 1.79637 14.6802 1.52852 14.5477C1.27139 14.4224 1.02497 14.1504 0.946398 13.9105C0.73569 13.284 1.06425 12.6289 1.68923 12.4248C1.91779 12.3496 2.2785 12.3819 2.5142 12.4964ZM7.98545 12.4893C8.4033 12.6826 8.67115 13.1516 8.64615 13.6277C8.62829 13.9964 8.36759 14.3687 8.00688 14.5477C7.83546 14.6337 7.76046 14.648 7.51761 14.648C7.18191 14.648 6.98906 14.5728 6.74978 14.358C6.51764 14.1468 6.39265 13.8532 6.39265 13.5203C6.39265 13.0012 6.69621 12.5895 7.19619 12.4212C7.39619 12.3568 7.77118 12.3854 7.98545 12.4893Z" fill="#B20F1C"/>
</svg>
