<svg width="29" height="18" viewBox="0 0 29 18" fill="none" xmlns="http://www.w3.org/2000/svg">
<path d="M27.2202 2.8543C26.4315 2.47403 25.5017 2.55391 24.797 3.06582C24.7515 3.09844 24.7083 3.13557 24.6687 3.17382L22.6188 5.16857C22.3727 2.28277 19.8877 3.76048e-07 16.8333 3.76048e-07H6.33333C3.11683 -0.00112469 0.5 2.52241 0.5 5.62423V12.3746C0.5 15.4765 3.11683 18 6.33333 18H16.8333C19.9005 18 22.396 15.697 22.6223 12.7943L24.671 14.7677C24.7107 14.8048 24.7515 14.8386 24.7958 14.8712C25.2065 15.1682 25.6918 15.319 26.1818 15.319C26.5353 15.319 26.8888 15.2413 27.2202 15.0816C28.01 14.7013 28.5 13.9351 28.5 13.0857V4.85243C28.5 4.00075 28.01 3.23458 27.2202 2.8543ZM16.8333 15.7499H6.33333C4.40367 15.7499 2.83333 14.2355 2.83333 12.3746V5.62423C2.83333 3.76336 4.40367 2.24902 6.33333 2.24902H16.8333C18.763 2.24902 20.3333 3.76336 20.3333 5.62423V12.3746C20.3333 14.2355 18.763 15.7499 16.8333 15.7499ZM22.6667 9.65535V8.31765L26.1667 4.91093L26.1958 13.0542L22.6667 9.65423V9.65535Z" fill="white"/>
</svg>
