<svg width="10" height="10" viewBox="0 0 10 10" fill="none" xmlns="http://www.w3.org/2000/svg">
<path d="M5 0C4.0111 0 3.0444 0.293245 2.22215 0.842652C1.3999 1.39206 0.759043 2.17295 0.380605 3.08658C0.00216644 4.00021 -0.0968502 5.00555 0.0960758 5.97545C0.289002 6.94535 0.765206 7.83627 1.46447 8.53553C2.16373 9.23479 3.05465 9.711 4.02455 9.90392C4.99445 10.0968 5.99979 9.99783 6.91342 9.6194C7.82705 9.24096 8.60794 8.60009 9.15735 7.77785C9.70676 6.9556 10 5.9889 10 5C9.99857 3.67436 9.47132 2.40342 8.53395 1.46605C7.59658 0.528678 6.32564 0.00143378 5 0ZM8.72542 4.58333H7.27625C7.18176 3.49787 6.8566 2.4451 6.3225 1.49542C6.96813 1.73958 7.53397 2.15696 7.95788 2.70171C8.38179 3.24646 8.64736 3.89751 8.72542 4.58333ZM4.03542 5.83333H5.96458C5.80052 6.70615 5.47327 7.54017 5 8.29166C4.52666 7.54021 4.19941 6.70617 4.03542 5.83333ZM3.98042 4.58333C4.09711 3.55991 4.44582 2.57661 5 1.70833C5.55424 2.57658 5.90297 3.55989 6.01958 4.58333H3.98042ZM3.6775 1.49542C3.1434 2.4451 2.81824 3.49787 2.72375 4.58333H1.27459C1.35265 3.89751 1.61822 3.24646 2.04212 2.70171C2.46603 2.15696 3.03187 1.73958 3.6775 1.49542ZM1.34667 5.83333H2.76708C2.90729 6.77129 3.21571 7.67623 3.6775 8.50458C3.09923 8.28543 2.58395 7.92698 2.17737 7.46102C1.77079 6.99505 1.48546 6.43597 1.34667 5.83333ZM6.3225 8.50458C6.78448 7.67631 7.09291 6.77134 7.23292 5.83333H8.65333C8.51455 6.43597 8.22921 6.99505 7.82263 7.46102C7.41605 7.92698 6.90078 8.28543 6.3225 8.50458Z" fill="white"/>
</svg>
